<?xml version="1.0" encoding="UTF-8" standalone="no"?>
<!-- Created with Inkscape (http://www.inkscape.org/) -->

<svg
   xmlns:dc="http://purl.org/dc/elements/1.1/"
   xmlns:cc="http://creativecommons.org/ns#"
   xmlns:rdf="http://www.w3.org/1999/02/22-rdf-syntax-ns#"
   xmlns:svg="http://www.w3.org/2000/svg"
   xmlns="http://www.w3.org/2000/svg"
   xmlns:sodipodi="http://sodipodi.sourceforge.net/DTD/sodipodi-0.dtd"
   xmlns:inkscape="http://www.inkscape.org/namespaces/inkscape"
   width="1024.0743"
   height="122.07873"
   id="svg2"
   version="1.1"
   inkscape:version="0.48.4 r9939"
   sodipodi:docname="escapeStartistLogo-white.svg"
   inkscape:export-filename="d:\Users\Ryan\Pictures\escapeStartistLogo.png"
   inkscape:export-xdpi="70.309998"
   inkscape:export-ydpi="70.309998">
  <defs
     id="defs4" />
  <sodipodi:namedview
     id="base"
     pagecolor="#000000"
     bordercolor="#666666"
     borderopacity="1.0"
     inkscape:pageopacity="1"
     inkscape:pageshadow="2"
     inkscape:zoom="1.1621094"
     inkscape:cx="533.11451"
     inkscape:cy="44.876264"
     inkscape:document-units="px"
     inkscape:current-layer="layer1"
     showgrid="false"
     inkscape:window-width="1920"
     inkscape:window-height="1017"
     inkscape:window-x="1912"
     inkscape:window-y="-8"
     inkscape:window-maximized="1"
     fit-margin-top="0"
     fit-margin-left="0"
     fit-margin-right="0"
     fit-margin-bottom="0" />
  <metadata
     id="metadata7">
    <rdf:RDF>
      <cc:Work
         rdf:about="">
        <dc:format>image/svg+xml</dc:format>
        <dc:type
           rdf:resource="http://purl.org/dc/dcmitype/StillImage" />
        <dc:title></dc:title>
      </cc:Work>
    </rdf:RDF>
  </metadata>
  <g
     inkscape:label="Layer 1"
     inkscape:groupmode="layer"
     id="layer1"
     transform="translate(1062.855,-375.72295)">
    <path
       style="fill:#ffffff;fill-opacity:1"
       d="m -630.35064,496.70948 c -0.3784,-0.61226 -0.36725,-6.74326 0.0248,-13.62446 0.68525,-12.02862 0.31492,-16.42847 -2.58929,-30.76234 -0.55719,-2.75 -1.27108,-10.2875 -1.58645,-16.75 -0.56158,-11.50825 -0.62179,-11.75 -2.92624,-11.75 -1.42476,0 -2.35286,-0.59168 -2.35286,-1.5 0,-0.93333 0.94444,-1.5 2.5,-1.5 1.375,0 2.5,-0.45 2.5,-1 0,-0.55 -0.85015,-1 -1.88922,-1 -1.03906,0 -2.90137,-0.8196 -4.13846,-1.82133 l -2.24924,-1.82132 3.38846,-1.42868 c 2.39273,-1.00884 7.5025,-1.42867 17.38846,-1.42867 15.84389,0 22.35058,1.43595 29.29221,6.46443 8.3163,6.0243 12.72118,21.18876 8.43407,29.03557 -2.80276,5.12997 -10.44407,9.33728 -20.57282,11.32741 -11.26362,2.21311 -12.65346,2.16799 -12.65346,-0.41074 0,-3.05476 -2.38419,-1.78654 -3.13169,1.66583 -0.34742,1.60462 -0.75251,9.8925 -0.90019,18.4175 -0.18025,10.40549 -0.49845,14.02095 -0.96812,11 l -0.69961,-4.5 -0.1502,4.25 c -0.0826,2.3375 -0.54771,4.25 -1.03356,4.25 -0.48585,0 -1.11872,0.9 -1.40638,2 -0.56447,2.15854 -3.16166,2.69665 -4.28021,0.8868 z m 20.8083,-38.59406 c -1.24391,-0.23919 -3.04391,-0.23011 -4,0.0202 -0.95609,0.25029 0.0617,0.44599 2.26166,0.4349 2.2,-0.0111 2.98225,-0.21589 1.73834,-0.45508 z m 5.94916,-0.97585 c -0.72188,-0.28888 -1.58438,-0.25335 -1.91667,0.0789 -0.33229,0.33229 0.25834,0.56864 1.3125,0.52522 1.16495,-0.048 1.4019,-0.28495 0.60417,-0.60417 z m 1.0317,-7.36072 c 2.24862,-0.98803 2.24552,-0.99586 -0.2192,-0.55498 -6.28314,1.12391 -16.42692,1.59098 -14.29037,0.65801 3.51117,-1.53323 15.67562,-2.95115 16.74037,-1.95129 0.5225,0.49065 1.27547,0.89209 1.67327,0.89209 1.57906,0 6.87583,-5.27895 6.86199,-6.83889 -0.0103,-1.16378 -0.38457,-0.94495 -1.25,0.7309 -0.67939,1.31561 -2.36026,3.05236 -3.73526,3.85946 -2.20959,1.29698 -2.18055,1.21272 0.25,-0.72542 2.34543,-1.87026 2.75,-2.93347 2.75,-7.2271 0,-4.51452 -0.4008,-5.43505 -3.88235,-8.9166 -3.43549,-3.43548 -7.17157,-5.39664 -5.67847,-2.98076 0.30647,0.49587 -1.5385,0.27087 -4.09992,-0.5 -2.56141,-0.77087 -7.29418,-1.40159 -10.51724,-1.40159 -5.54647,0 -5.83556,0.12043 -5.40123,2.25 0.2524,1.2375 0.73749,6.94838 1.07798,12.69084 0.3405,5.74246 0.88085,10.86438 1.20079,11.38205 0.70524,1.14111 15.25604,0.0673 18.51964,-1.36672 z m -27.31888,-22.20617 c 0.0548,-1.5125 -0.35032,-2.75 -0.90032,-2.75 -0.55234,0 -0.95538,2.35021 -0.90032,5.25 0.0784,4.13061 0.27039,4.71696 0.90032,2.75 0.44035,-1.375 0.8455,-3.7375 0.90032,-5.25 z m -2.57218,59.75 c -0.004,-3.85 0.17268,-5.54754 0.39359,-3.7723 0.22091,1.77523 0.22454,4.92523 0.008,7 -0.21648,2.07476 -0.39722,0.6223 -0.40166,-3.2277 z m 81.66539,-17.43434 c -7.31623,-2.2255 -17.03643,-11.08737 -16.95349,-15.45645 0.034,-1.78858 0.27943,-1.65317 1.61485,0.89079 3.94287,7.5111 10.62794,12.20782 20.34511,14.2938 4.3024,0.9236 4.34631,0.96752 1,1.00016 -1.925,0.0188 -4.62791,-0.30896 -6.00647,-0.7283 z m -268.69755,-4.48843 c -7.17068,-2.3225 -16.30984,-7.02065 -16.28067,-8.36938 0.008,-0.38932 0.39827,-1.31207 0.86632,-2.05057 0.56086,-0.88492 0.0442,-2.21327 -1.51531,-3.89602 -2.48134,-2.67741 -3.11678,-5.26126 -1.29389,-5.26126 0.58983,0 5.9683,2.27511 11.95214,5.0558 8.19381,3.80766 12.60403,5.24005 17.86429,5.80211 4.45912,0.47645 6.76734,0.39483 6.3838,-0.22575 -0.3394,-0.54916 0.0769,-0.71201 0.95684,-0.37433 3.30038,1.26647 7.83946,-6.14474 7.62031,-12.44209 l -0.1502,-4.31574 -0.69961,4.5 -0.69961,4.5 -0.1502,-4.31574 c -0.0826,-2.37366 -0.62501,-5.29866 -1.20536,-6.5 -1.04125,-2.15545 -1.03314,-2.15788 0.61476,-0.18426 0.91845,1.1 1.48111,1.36351 1.25036,0.58558 -0.23076,-0.77793 -1.50072,-2.12793 -2.82213,-3 -1.32141,-0.87207 -2.12891,-1.13558 -1.79444,-0.58558 0.39267,0.64571 -4.72923,1.07757 -14.45695,1.21894 -17.32964,0.25186 -20.29158,-0.5785 -24.4436,-6.85263 -2.19936,-3.32345 -2.47557,-4.65546 -2.12079,-10.22714 0.50892,-7.99256 3.77013,-13.34684 10.55557,-17.33028 6.9356,-4.07159 14.54581,-3.93685 23.29342,0.41243 8.09002,4.02232 12.548,7.54895 11.5611,9.14579 -0.5448,0.88151 -1.64451,0.63942 -4.16131,-0.91605 -3.78759,-2.34086 -4.60054,-1.32866 -1.31844,1.64159 2.56485,2.32116 5.30983,7.40735 3.99769,7.40735 -0.52321,0 -4.67347,-1.8 -9.22278,-4 -10.15966,-4.9131 -16.1089,-5.36823 -20.23127,-1.54775 -3.01619,2.79531 -3.55268,7.5504 -1.08311,9.59996 1.09672,0.9102 5.64554,1.32993 15.25,1.40716 12.14387,0.0976 14.1707,0.36437 17.97632,2.36568 7.50242,3.94538 10.59318,12.41985 8.28742,22.72307 -1.65396,7.39065 -6.03885,13.06042 -12.38625,16.01573 -6.60241,3.07403 -12.93299,3.07782 -22.39442,0.0134 z m -3.08845,-3.09698 c -2.91085,-1.32249 -6.64926,-3.37066 -8.30757,-4.55148 -1.65831,-1.18083 -3.2409,-1.92116 -3.51687,-1.6452 -0.52803,0.52804 8.47118,5.93606 12.66334,7.60996 4.92563,1.96677 4.30708,0.9247 -0.8389,-1.41328 z m 28.73829,-0.0881 c 1.70459,-1.43432 3.56453,-3.57182 4.13318,-4.75 0.90535,-1.87574 0.77004,-1.83849 -1.08801,0.2995 -1.16706,1.3429 -3.5299,3.4804 -5.25074,4.75 -1.72085,1.2696 -2.62591,2.30836 -2.01125,2.30836 0.61465,0 2.51222,-1.17354 4.21682,-2.60786 z m -19.94582,-4.81545 c -2.475,-0.70858 -5.4,-1.58563 -6.5,-1.949 -1.1,-0.36336 -0.2,0.23495 2,1.3296 2.2,1.09464 5.125,1.97169 6.5,1.94899 1.70431,-0.0281 1.06775,-0.45131 -2,-1.32959 z m 10.1875,0.7402 c -0.72188,-0.28887 -1.58438,-0.25335 -1.91667,0.0789 -0.33229,0.33229 0.25834,0.56864 1.3125,0.52522 1.16495,-0.048 1.4019,-0.28494 0.60417,-0.60417 z m 18.79719,-14.23357 c 0.0201,-4.4833 -0.54647,-3.68468 -1.35972,1.91667 -0.45657,3.14459 -0.35249,4.0482 0.34552,3 0.54939,-0.825 1.00578,-3.0375 1.0142,-4.91667 z m 99.51531,22.25294 c -10.0729,-1.82041 -13.42184,-3.74137 -16.25,-9.32104 -2.46756,-4.86823 -3.14854,-16.22354 -1.14035,-19.01523 0.91077,-1.26612 0.99124,-1.22714 0.51607,0.25 -0.30962,0.9625 -0.23957,1.74716 0.15566,1.74368 0.87215,-0.008 4.64941,-6.19855 4.40625,-7.22178 -0.38594,-1.62403 6.27294,-3.87691 12.59056,-4.2597 3.697,-0.22401 5.65798,-0.16787 4.35774,0.12475 l -2.36408,0.53205 2.72838,1.4155 c 1.50061,0.77853 3.81607,1.4155 5.14546,1.4155 2.39578,0 4.25333,2.43334 2.89557,3.79313 -0.3882,0.38878 -4.69305,0.95133 -9.56634,1.25011 -6.69664,0.41058 -9.36291,0.99791 -10.91772,2.40499 -1.13146,1.02396 -2.0572,2.29185 -2.0572,2.81754 0,0.52569 0.7875,-0.0155 1.75,-1.20256 1.34246,-1.65572 3.14726,-2.26049 7.75,-2.59692 l 6,-0.43856 -6.47893,1.73613 -6.47894,1.73614 -0.74298,4.39094 c -0.40864,2.41501 -0.46109,4.84704 -0.11656,5.4045 0.35703,0.57769 0.12993,0.70672 -0.52808,0.30005 -1.29294,-0.79907 -1.51108,0.32463 -0.3892,2.00481 1.07214,1.60568 4.8229,3.41055 6.91895,3.32942 1.63916,-0.0634 1.62124,-0.16248 -0.18426,-1.01826 -1.43685,-0.68105 -0.62321,-0.80205 2.88957,-0.42972 2.68927,0.28504 5.83927,0.58212 7,0.66017 1.16074,0.078 0.31043,0.50162 -1.88957,0.94127 -2.69307,0.53819 -1.10193,0.65028 4.86984,0.34305 4.87841,-0.25098 9.2875,-0.71445 9.79797,-1.02994 2.22847,-1.37727 -2.54247,-18.14134 -7.67446,-26.96647 -4.54894,-7.82249 -14.22559,-12.14644 -24.74335,-11.0564 -4.55478,0.47205 -5.75,0.30382 -5.75,-0.8093 0,-0.77286 1.35,-1.70172 3,-2.06412 4.84676,-1.06453 3.44517,-2.5 -2.44098,-2.5 -6.33418,0 -7.80317,-1.30526 -3.79924,-3.37578 8.62763,-4.46152 23.0969,-4.00412 32.33164,1.02205 10.86191,5.9118 18.12028,21.12181 19.59306,41.05754 0.50111,6.78315 0.30768,8.65921 -1.11699,10.83353 -3.61166,5.51208 -13.60298,6.77446 -30.06749,3.79893 z m 3,-1.90719 c -3.3,-0.74215 -7.72499,-1.76479 -9.8333,-2.27253 -2.10832,-0.50774 -3.45438,-0.54423 -2.99125,-0.0811 1.31992,1.31992 11.45109,3.79772 15.32455,3.74796 2.84661,-0.0366 2.3799,-0.29687 -2.5,-1.39433 z m -11,-32.42908 c 1.31874,-0.56668 1.48906,-0.87815 0.5,-0.9144 -0.825,-0.0302 -2.175,0.38124 -3,0.9144 -1.82797,1.18132 -0.24909,1.18132 2.5,0 z m 7.73834,-1.70726 c -1.24391,-0.23919 -3.04391,-0.23011 -4,0.0202 -0.95609,0.25029 0.0617,0.446 2.26166,0.4349 2.2,-0.0111 2.98225,-0.21589 1.73834,-0.45508 z m 129.72379,34.45089 c -3.87866,-2.31775 -6.34786,-4.75991 -8.56646,-8.47264 -1.71438,-2.86895 -3.40475,-4.92858 -3.75636,-4.57696 -0.75563,0.75562 -0.7846,0.45055 -1.06309,-11.19403 -0.11838,-4.95 0.12502,-9.9 0.54089,-11 0.5083,-1.34449 0.79993,-1.50837 0.88979,-0.5 0.0927,1.04072 0.39681,0.88763 0.9931,-0.5 1.18132,-2.74909 1.18132,-4.32797 0,-2.5 -1.72983,2.67673 -1.05495,0.028 1.03834,-4.07516 1.22119,-2.39372 2.48581,-3.71893 3.15451,-3.30565 0.67495,0.41714 0.83616,0.23676 0.40782,-0.4563 -1.68355,-2.72404 10.2132,-10.24053 22.69226,-14.33719 14.80075,-4.85883 22.37953,6.50443 14.65202,21.96855 -3.49584,6.9958 -9.05281,11.71028 -14.98409,12.71236 -2.56737,0.43376 -6.34493,-0.0394 -11.41057,-1.42909 -4.16493,-1.14264 -7.79258,-2.07752 -8.06145,-2.07752 -0.26886,0 -0.47896,2.5875 -0.46688,5.75 0.041,10.7293 5.77226,18.21691 13.97804,18.26158 5.28992,0.0288 7.54453,1.92111 2.5,2.09827 l -4,0.14048 4.48923,0.72385 c 3.06655,0.49445 5.55686,0.27777 7.85809,-0.68375 4.04349,-1.68947 4.86179,-1.14218 3.32741,2.22542 -1.49462,3.28034 -4.85949,4.48415 -12.53407,4.48415 -5.24793,0 -7.08751,-0.51294 -11.67853,-3.25637 z m 5.17306,-5.28277 c -1.85065,-0.80347 -3.65065,-1.44491 -4,-1.42542 -1.30105,0.0726 4.42369,2.89354 5.86481,2.88998 0.825,-0.002 -0.0142,-0.66109 -1.86481,-1.46456 z m -17.53102,-13.19003 c -0.33229,-0.33229 -0.56864,0.25834 -0.52522,1.3125 0.048,1.16495 0.28494,1.4019 0.60416,0.60417 0.28887,-0.72187 0.25335,-1.58437 -0.0789,-1.91667 z m 0.0581,-14.52083 c -0.27741,-0.6875 -0.50439,-0.125 -0.50439,1.25 0,1.375 0.22698,1.9375 0.50439,1.25 0.27741,-0.6875 0.27741,-1.8125 0,-2.5 z m 15.78772,0.3624 c -1.53524,-1.43441 -5.45,-2.34171 -5.45,-1.26312 0,1.15812 1.72554,1.96147 4.45,2.07177 1.18001,0.0478 1.57488,-0.27153 1,-0.80865 z m 13.51356,-8.08645 c 2.86095,-2.03718 5.80956,-7.58617 4.64822,-8.7475 -0.98791,-0.98791 -14.02475,3.47195 -17.00756,5.81823 -3.32561,2.61593 -3.28903,3.66674 0.14578,4.18707 6.34881,0.96176 9.56105,0.63095 12.21356,-1.2578 z m 215.53644,42.31032 c -10.0729,-1.82041 -13.42184,-3.74137 -16.25,-9.32104 -2.46756,-4.86823 -3.14854,-16.22354 -1.14035,-19.01523 0.91077,-1.26612 0.99124,-1.22714 0.51607,0.25 -0.30962,0.9625 -0.23957,1.74716 0.15566,1.74368 0.87215,-0.008 4.64941,-6.19855 4.40625,-7.22178 -0.38594,-1.62403 6.27294,-3.87691 12.59056,-4.2597 3.697,-0.22401 5.65798,-0.16787 4.35774,0.12475 l -2.36408,0.53205 2.72838,1.4155 c 1.50061,0.77853 3.81607,1.4155 5.14546,1.4155 2.39578,0 4.25333,2.43334 2.89557,3.79313 -0.3882,0.38878 -4.69305,0.95133 -9.56634,1.25011 -6.69664,0.41058 -9.36291,0.99791 -10.91772,2.40499 -1.13146,1.02396 -2.0572,2.29185 -2.0572,2.81754 0,0.52569 0.7875,-0.0155 1.75,-1.20256 1.34246,-1.65572 3.14726,-2.26049 7.75,-2.59692 l 6,-0.43856 -6.47893,1.73613 -6.47894,1.73614 -0.74298,4.39094 c -0.40864,2.41501 -0.46109,4.84704 -0.11656,5.4045 0.35703,0.57769 0.12993,0.70672 -0.52808,0.30005 -1.29294,-0.79907 -1.51108,0.32463 -0.3892,2.00481 1.07214,1.60568 4.8229,3.41055 6.91895,3.32942 1.63916,-0.0634 1.62124,-0.16248 -0.18426,-1.01826 -1.43685,-0.68105 -0.62321,-0.80205 2.88957,-0.42972 2.68927,0.28504 5.83927,0.58212 7,0.66017 1.16074,0.078 0.31043,0.50162 -1.88957,0.94127 -2.69307,0.53819 -1.10193,0.65028 4.86984,0.34305 4.87841,-0.25098 9.2875,-0.71445 9.79797,-1.02994 2.22847,-1.37727 -2.54247,-18.14134 -7.67446,-26.96647 -4.54894,-7.82249 -14.22559,-12.14644 -24.74335,-11.0564 -4.55478,0.47205 -5.75,0.30382 -5.75,-0.8093 0,-0.77286 1.35,-1.70172 3,-2.06412 4.84676,-1.06453 3.44517,-2.5 -2.44098,-2.5 -6.33418,0 -7.80317,-1.30526 -3.79924,-3.37578 8.62763,-4.46152 23.0969,-4.00412 32.33164,1.02205 10.86191,5.9118 18.12028,21.12181 19.59306,41.05754 0.50111,6.78315 0.30768,8.65921 -1.11699,10.83353 -3.61166,5.51208 -13.60298,6.77446 -30.06749,3.79893 z m 3,-1.90719 c -3.3,-0.74215 -7.72499,-1.76479 -9.8333,-2.27253 -2.10832,-0.50774 -3.45438,-0.54423 -2.99125,-0.0811 1.31992,1.31992 11.45109,3.79772 15.32455,3.74796 2.84661,-0.0366 2.3799,-0.29687 -2.5,-1.39433 z m -11,-32.42908 c 1.31874,-0.56668 1.48906,-0.87815 0.5,-0.9144 -0.825,-0.0302 -2.175,0.38124 -3,0.9144 -1.82797,1.18132 -0.24909,1.18132 2.5,0 z m 7.73834,-1.70726 c -1.24391,-0.23919 -3.04391,-0.23011 -4,0.0202 -0.95609,0.25029 0.0617,0.446 2.26166,0.4349 2.2,-0.0111 2.98225,-0.21589 1.73834,-0.45508 z m 197.76166,35.81947 c -7.02702,-2.2745 -15.21424,-6.45404 -17.06281,-8.71049 -0.96257,-1.17495 0.13145,-0.8391 3.31281,1.01702 5.45923,3.18509 6.51102,2.83275 1.25,-0.41874 -1.925,-1.18971 -3.5,-2.73167 -3.5,-3.42657 0,-0.6949 -0.9,-2.07794 -2,-3.07343 -1.1,-0.99549 -2,-2.67055 -2,-3.72237 0,-2.42142 1.45658,-2.00294 13.54112,3.89042 6.88146,3.35593 10.82283,4.6087 16.5,5.24456 4.85758,0.54406 7.80763,0.47943 8.45888,-0.18531 0.67613,-0.69013 0.51419,-0.76117 -0.5,-0.21934 -0.825,0.44075 -0.29113,-0.50573 1.18638,-2.1033 3.01352,-3.25838 4.75576,-7.22184 4.93193,-11.21976 l 0.11832,-2.6849 0.84767,3 c 0.765921,2.71068 0.806851,2.62639 0.42443,-0.87403 -0.78417,-7.17768 -1.44485,-7.41019 -19.91963,-7.01002 -15.56779,0.33721 -16.49289,0.24852 -19.62164,-1.88103 -4.58334,-3.1196 -7.02471,-6.74284 -7.6414,-11.34064 -1.65415,-12.3326 8.72527,-23.73938 21.67394,-23.81924 6.33671,-0.0391 10.29495,1.35815 18,6.35386 7.5373,4.88695 7.34244,4.708 6.54013,6.00616 -0.51249,0.82924 -1.72203,0.56516 -4.25414,-0.92883 -1.94593,-1.14812 -3.81509,-1.81046 -4.15369,-1.47186 -0.3386,0.3386 0.13313,1.03467 1.04829,1.54682 2.1215,1.18725 6.25483,7.81673 5.40401,8.66754 -0.35394,0.35394 -4.11532,-1.09636 -8.35863,-3.22289 -12.01626,-6.02195 -19.85156,-5.83098 -23.27582,0.5673 -3.29471,6.15622 2.45354,9.31863 15.04985,8.27972 10.02144,-0.82655 18.09453,0.89323 22.547831,4.80328 3.77861,3.31767 6.81823,10.86851 4.66419,11.58652 -0.70715,0.23572 -1.18274,2.13964 -1.14173,4.57067 0.0572,3.39402 0.24623,3.7958 1.01911,2.16667 0.74216,-1.56438 0.83773,-1.27472 0.43875,1.32984 -0.79006,5.15755 -3.37306,9.79732 -7.56016,13.58012 -6.378461,5.76255 -15.559021,7.07142 -25.967991,3.70225 z m -0.5,-2.11221 c -2.74909,-1.18132 -4.32797,-1.18132 -2.5,0 0.825,0.53316 2.175,0.94464 3,0.9144 0.98906,-0.0363 0.81874,-0.34772 -0.5,-0.9144 z m 24.18618,-0.95023 c 1.7524,-1.06851 3.721341,-2.97933 4.375431,-4.24626 1.00063,-1.93816 0.65388,-1.80892 -2.18618,0.81481 -1.856491,1.71508 -4.275431,3.61389 -5.375431,4.21959 -1.1,0.6057 -1.55,1.11327 -1,1.12794 0.55,0.0147 2.43378,-0.84756 4.18618,-1.91608 z m -28.68618,-0.44278 c 0,-0.21616 -0.69837,-0.661 -1.55194,-0.98855 -0.88992,-0.34149 -1.29132,-0.17385 -0.94098,0.39301 0.58726,0.95021 2.49292,1.40545 2.49292,0.59554 z m 9,-5.1587 c -5.55206,-1.74943 -6.44398,-1.71809 -2.5,0.0878 1.65,0.75552 3.9,1.36387 5,1.35188 1.1,-0.012 -0.025,-0.65986 -2.5,-1.43971 z m 10.1875,0.8686 c -0.72187,-0.28888 -1.58438,-0.25335 -1.91667,0.0789 -0.33229,0.33229 0.25834,0.56864 1.3125,0.52522 1.16495,-0.048 1.4019,-0.28494 0.60417,-0.60417 z m 9.38035,-6.44809 c 0.85449,-1.65241 1.41379,-3.33829 1.24289,-3.74641 -0.17091,-0.40811 -1.31755,1.22044 -2.54809,3.61899 -1.23054,2.39856 -1.78984,4.08444 -1.24289,3.74641 0.54696,-0.33804 1.69359,-1.96658 2.54809,-3.61899 z m -169.15167,14.21453 c -0.2289,-0.22916 -0.42152,-3.37916 -0.42805,-7 -0.007,-3.62083 -0.63855,-8.93733 -1.4045,-11.81444 -0.76595,-2.87712 -1.91848,-10.97712 -2.56116,-18 -0.64269,-7.02289 -1.53848,-14.459 -1.99064,-16.52468 -0.51367,-2.34672 -0.44433,-3.98927 0.18483,-4.37812 1.19967,-0.74143 2.74655,1.42905 2.76803,3.88391 0.008,0.9625 0.46531,1.75 1.01531,1.75 1.2613,0 1.23967,-3.24835 -0.0591,-8.88198 -1.45137,-6.29539 -0.4507,-6.20187 2.71546,0.2538 l 2.75142,5.61005 4.04613,-4.55818 c 4.45195,-5.01535 9.36952,-6.83893 15.54613,-5.76496 6.50705,1.13142 11.73625,5.15018 8.9456,6.87489 -0.57794,0.35719 -0.35918,1.46553 0.54368,2.75453 3.0023,4.28639 0.68887,8.04129 -2.54994,4.13876 -1.73448,-2.08987 -8.36853,-5.42691 -10.78876,-5.42691 -1.06098,0 -2.9914,0.92671 -4.28984,2.05935 l -2.36078,2.05935 2.70936,-1.64773 c 1.82562,-1.11028 3.69741,-1.43072 5.73853,-0.98241 4.61436,1.01348 4.39146,2.05366 -0.35903,1.67541 -3.83843,-0.30564 -4.46772,-0.0116 -6.95574,3.25039 -1.50453,1.97253 -3.38747,5.14679 -4.18431,7.05391 -1.86558,4.46496 -1.91027,17.72605 -0.0719,21.33139 1.78064,3.49211 4.12426,20.11236 2.9884,21.19285 -0.90998,0.86561 -11.23282,1.80798 -11.94913,1.09082 z m 31.58382,-59.55765 c 0,-0.60653 -5.64064,-3.53931 -6.70034,-3.48376 -0.43981,0.0231 0.77534,0.90419 2.70034,1.95808 3.94147,2.15787 4,2.18019 4,1.52568 z m -9.75,-4.23141 c -1.2375,-0.23836 -3.2625,-0.23836 -4.5,0 -1.2375,0.23835 -0.225,0.43337 2.25,0.43337 2.475,0 3.4875,-0.19502 2.25,-0.43337 z m -637.88068,59.31452 c -2.85133,-2.53148 -5.83103,-6.30548 -6.70713,-8.49506 -2.13938,-5.34685 -3.64345,-21.59484 -3.62073,-39.11373 0.025,-19.31396 0.27044,-21.01136 3.4306,-23.72961 2.44935,-2.10684 3.56896,-2.27039 15.54287,-2.27039 15.49179,0 27.98508,1.61676 27.98508,3.62156 0,0.86493 -1.11758,1.37844 -3,1.37844 -3.75894,0 -3.92758,1.56013 -0.25,2.31291 3.79255,0.77631 6.72644,3.10717 5.79931,4.60731 -0.55984,0.90584 -5.40471,1.16218 -18.65475,0.98701 -9.84417,-0.13014 -18.08051,-0.05 -18.30298,0.17807 -0.22246,0.22809 -0.55101,3.98116 -0.73011,8.34017 l -0.32564,7.92547 6.98208,0.28923 c 7.89432,0.32701 23.10544,4.09086 17.98209,4.4495 l -3,0.20999 2.76695,0.41823 c 1.52183,0.23003 2.50777,0.8376 2.19099,1.35017 -0.31679,0.51257 -0.0994,0.93194 0.48304,0.93194 0.58246,0 1.05902,1.0823 1.05902,2.40512 l 0,2.40512 -10.84635,-0.31024 c -5.96549,-0.17064 -12.37799,0.0117 -14.25,0.40511 l -3.40365,0.71537 0.27497,6.93976 c 0.31568,7.9671 2.56338,15.01529 5.24635,16.45117 2.59713,1.38994 8.45765,1.20389 15.47868,-0.49141 7.80809,-1.88534 8.64512,-1.86213 8.29384,0.23 -0.22937,1.36606 0.52889,1.81809 3.45616,2.06037 2.48065,0.2053 3.75,0.80493 3.75,1.77143 0,2.01726 -2.95332,3.03484 -14,4.82375 -5.225,0.84614 -10.625,1.75247 -12,2.01407 -3.00228,0.57119 8.08037,-0.14879 14.18654,-0.92163 3.81071,-0.4823 4.02208,-0.41244 1.81346,0.5994 -1.375,0.62993 -7,1.3526 -12.5,1.60594 l -10,0.4606 -5.13069,-4.55514 z m -4.15463,-7.74418 c -0.89343,-2.27446 -1.78456,-3.65496 -1.98029,-3.06779 -0.34329,1.02988 2.40848,7.20318 3.21084,7.20318 0.21664,0 -0.33711,-1.86092 -1.23055,-4.13539 z m 32.03532,0.47311 c -0.6875,-0.27741 -1.8125,-0.27741 -2.5,0 -0.6875,0.27741 -0.125,0.50439 1.25,0.50439 1.375,0 1.9375,-0.22698 1.25,-0.50439 z m -10,-26 c -0.6875,-0.27741 -1.8125,-0.27741 -2.5,0 -0.6875,0.27741 -0.125,0.50439 1.25,0.50439 1.375,0 1.9375,-0.22698 1.25,-0.50439 z m 1.9375,-7.02083 c -0.72188,-0.28887 -1.58438,-0.25335 -1.91667,0.0789 -0.33229,0.33229 0.25834,0.56864 1.3125,0.52522 1.16495,-0.048 1.4019,-0.28494 0.60417,-0.60417 z m 120.4206,43.85802 c -0.43114,-0.6976 1.18443,-1.20523 4.61424,-1.44981 2.90271,-0.20701 1.45266,-0.35562 -3.22234,-0.33027 -6.25632,0.0339 -9.47938,-0.43314 -12.2103,-1.76947 -4.04002,-1.97691 -11.80819,-9.807 -11.75929,-11.85302 0.0167,-0.69979 0.52818,-0.37234 1.13657,0.72766 1.59335,2.88087 5.02014,6.51512 7.30226,7.74434 1.08308,0.58338 0.0603,-1.10794 -2.27278,-3.75849 -2.33311,-2.65055 -4.52967,-5.96528 -4.88124,-7.36607 -0.58812,-2.34323 -0.70062,-2.38987 -1.40694,-0.58333 -1.58471,4.05317 -0.88824,-8.23826 0.7709,-13.60495 0.92354,-2.98732 1.59444,-5.92598 1.49087,-6.53034 -0.36444,-2.12674 7.91147,-10.26289 13.03743,-12.81726 6.20147,-3.09032 15.74986,-3.49924 23.11438,-0.9899 5.43555,1.85208 6.76864,5.0741 1.67814,4.056 -3.44742,-0.68948 -3.91378,0.29824 -1,2.11793 1.1,0.68696 2,2.06552 2,3.06347 0,1.63563 -0.97818,1.80727 -9.92498,1.74153 -11.87314,-0.0872 -14.1045,1.06828 -18.29292,9.47311 -4.49178,9.01355 -3.36461,15.05001 3.47018,18.58442 5.90602,3.05412 8.80338,3.40031 15.48646,1.85041 7.02931,-1.63021 12.39613,-1.9795 8.79771,-0.57259 -1.81694,0.71039 -1.77736,0.81444 0.53015,1.39359 1.37153,0.34423 3.44184,0.37793 4.60069,0.0749 1.15885,-0.30305 2.44315,-0.007 2.854,0.65769 0.94903,1.53556 -4.53144,6.7955 -6.42334,6.16487 -0.7681,-0.25604 -1.09439,-0.003 -0.73833,0.57354 0.86597,1.40116 -4.23935,3.05667 -11.82204,3.83354 -4.05545,0.41549 -6.5001,0.26327 -6.92948,-0.43148 z m 278.2108,-0.6772 c -0.3746,-0.38128 -0.45158,-1.29135 -0.17107,-2.02237 0.35871,-0.93477 -0.85216,-1.5334 -4.08119,-2.01762 -4.97245,-0.74566 -6.45973,-1.96495 -4.62895,-3.79485 0.81135,-0.81096 7.12493,-1.13803 20.86287,-1.08079 19.46221,0.0811 19.52483,0.0746 5.19944,-0.5408 -7.975,-0.34258 -14.05,-0.77052 -13.5,-0.95097 2.41378,-0.79196 31.5,-0.76684 31.5,0.0272 0,0.48537 0.70156,0.88249 1.55902,0.88249 0.85746,0 1.33921,-0.35565 1.07056,-0.79034 -0.26866,-0.43469 1.75258,-1.58629 4.49163,-2.55911 3.37447,-1.19851 5.57285,-2.7435 6.81864,-4.79204 1.22459,-2.01367 2.01617,-2.57833 2.37041,-1.69089 0.30096,0.75396 0.56612,0.38891 0.61079,-0.84089 0.0899,-2.47425 -4.27475,-8.14986 -6.16702,-8.01938 -0.68971,0.0476 -3.36267,-0.91043 -5.93989,-2.12886 -4.83825,-2.28738 -25.77493,-8.14175 -29.31414,-8.19691 -3.43794,-0.0536 -11.50332,-6.77539 -13.5569,-11.29853 -3.33334,-7.34189 -2.04648,-15.56374 3.19048,-20.3842 6.20243,-5.70916 20.7935,-8.76894 30.538,-6.40388 7.98268,1.93745 15.32842,5.21429 15.32842,6.83781 0,1.07923 -0.63168,1.32061 -2.25,0.85978 -1.2375,-0.35239 -3.6,-0.89792 -5.25,-1.21229 l -3,-0.57158 3,1.95248 c 3.99789,2.60193 6.83446,5.88864 6.10325,7.07177 -0.34973,0.56588 -4.35018,-0.24937 -9.75915,-1.9888 -7.5456,-2.42653 -10.11552,-2.8292 -14.53364,-2.27719 -7.45936,0.93198 -11.81046,4.01373 -11.81046,8.36496 0,4.72026 2.60608,6.27282 18.5,11.02127 23.08181,6.89589 30.75846,12.03046 32.8973,22.00356 2.32829,10.85644 -2.67983,18.20586 -15.21521,22.32834 -5.07106,1.66771 -9.59672,2.11152 -25.18209,2.46948 -10.45,0.24001 -19.30649,0.12443 -19.6811,-0.25685 z m 20.4311,-1.23495 c -2.8875,-0.202 -7.6125,-0.202 -10.5,0 -2.8875,0.202 -0.525,0.36728 5.25,0.36728 5.775,0 8.1375,-0.16528 5.25,-0.36728 z m 32.75,-6.83313 c 0,-0.275 -0.9,-0.0183 -2,0.57037 -1.1,0.5887 -2,1.29537 -2,1.57037 0,0.275 0.9,0.0183 2,-0.57037 1.1,-0.5887 2,-1.29537 2,-1.57037 z m 37.26551,3.45561 c -4.54166,-1.312 -10.13145,-4.76623 -11.32653,-6.99926 -0.70316,-1.31386 -0.67742,-1.88598 0.0849,-1.88598 0.60181,0 0.81155,-0.45734 0.46609,-1.01631 -0.34546,-0.55897 -1.04702,-0.75742 -1.55902,-0.44098 -0.51199,0.31643 -0.9309,0.15502 -0.9309,-0.35869 0,-0.51371 -0.21891,-2.45277 -0.48647,-4.30902 -0.43353,-3.00772 -0.38145,-3.10294 0.47858,-0.875 1.00559,2.60501 0.65435,-9.44751 -0.61928,-21.25 -0.53917,-4.99638 -0.89915,-5.75179 -2.74666,-5.76366 -4.11132,-0.0264 -6.62617,-1.20408 -6.62617,-3.10297 0,-1.03585 0.54,-1.88337 1.2,-1.88337 0.93333,0 0.93333,-0.26667 0,-1.2 -0.66,-0.66 -1.2,-2.235 -1.2,-3.5 0,-2.08393 0.45575,-2.3 4.85118,-2.3 l 4.85118,0 1.56587,-7.25 c 2.77309,-12.83946 4.03386,-16.75 5.40025,-16.75 0.73233,0 1.33152,0.9 1.33152,2 0,2.86586 1.23171,2.45876 3.24067,-1.07111 0.95737,-1.68215 2.19487,-2.77775 2.75,-2.43466 1.50495,0.93011 1.2197,10.47455 -0.53978,18.06128 -0.852,3.67378 -1.2981,6.93061 -0.99133,7.23739 0.84231,0.8423 6.55652,0.77874 10.88887,-0.12111 2.57729,-0.53532 3.63796,-0.45878 3.2112,0.23172 -0.35048,0.56709 0.28023,1.60404 1.40157,2.30433 3.52706,2.20269 2.50106,4.53196 -2.7112,6.15512 l -4.75,1.4792 4.5,-0.50185 c 3.35493,-0.37415 4.11831,-0.23074 3,0.5636 -0.825,0.58601 -4.93936,1.07236 -9.14301,1.08078 -5.83328,0.0117 -7.7782,0.3676 -8.21394,1.50313 -1.2558,3.27256 -1.61635,11.49864 -0.89906,20.51218 l 0.75601,9.5 3.5,1.19356 c 1.925,0.65645 5.75,1.2923 8.5,1.41299 l 5,0.21944 -5.5,0.67401 -5.5,0.67401 5.25,0.16299 c 2.8875,0.0897 5.25,0.613 5.25,1.163 0,0.55 1.09844,1 2.44098,1 3.22597,0 3.97986,1.43631 1.86429,3.55187 -1.43654,1.43654 -3.01209,1.62481 -9.75919,1.16613 -9.00414,-0.61212 -9.01356,-0.14163 -0.0234,1.16763 l 5.97732,0.87049 -5.5,0.0318 c -3.025,0.0175 -6.95552,-0.38872 -8.73449,-0.90263 z m -4.55978,-18.13524 c -0.23835,-1.2375 -0.43337,-0.225 -0.43337,2.25 0,2.475 0.19502,3.4875 0.43337,2.25 0.23836,-1.2375 0.23836,-3.2625 0,-4.5 z m 15.48177,-35.43311 c -0.72187,-0.28888 -1.58438,-0.25335 -1.91667,0.0789 -0.33229,0.33229 0.25834,0.56864 1.3125,0.52522 1.16495,-0.048 1.4019,-0.28494 0.60417,-0.60417 z m 157.52973,53.59148 c -2.08052,-0.4899 -4.48586,-1.4572 -5.3452,-2.14955 -4.95963,-3.99585 -6.31339,-5.74807 -5.69202,-7.36733 0.41527,-1.08216 0.26834,-1.4776 -0.39638,-1.06678 -1.12307,0.69409 -2.31329,-2.50026 -2.1703,-5.82471 0.0709,-1.64875 0.22664,-1.56094 0.88667,0.5 0.7452,2.32688 0.80754,2.26536 0.90032,-0.8884 0.0548,-1.86362 -0.43326,-8.50112 -1.08463,-14.75 -1.08673,-10.42549 -1.35451,-11.36272 -3.25,-11.37526 -4.0536,-0.0268 -6.56569,-1.21401 -6.56569,-3.10297 0,-1.03585 0.46037,-1.88337 1.02305,-1.88337 0.56268,0 0.29889,-1.10521 -0.58619,-2.45602 -2.23333,-3.40849 -1.11024,-4.54398 4.49435,-4.54398 l 4.81317,0 0.6287,-4.25 c 1.09682,-7.41453 4.97011,-19.80321 6.06901,-19.41168 0.58185,0.20732 0.99541,1.116 0.91902,2.01931 -0.23296,2.75479 2.06725,1.83082 3.49996,-1.4059 3.39335,-7.66611 5.36294,2.95881 2.68723,14.49623 -0.85156,3.67188 -1.5483,7.04944 -1.5483,7.50569 0,1.49866 4.86058,2.08775 9.19342,1.11423 4.85685,-1.09127 6.23852,-0.61114 2.70176,0.93885 l -2.39518,1.04969 2.36523,-0.46472 c 5.34663,-1.05052 8.66661,4.81179 3.38477,5.97672 -6.20423,1.36836 -7.76637,2.37667 -2.75,1.77501 2.76304,-0.33139 4.63685,-0.2165 4.1883,0.2568 -0.44643,0.47108 -4.70468,1.09123 -9.46276,1.37813 l -8.65107,0.52164 -0.78744,3.5 c -0.43309,1.925 -0.5036,8.80311 -0.15668,15.28469 0.73077,13.65301 0.5614,13.43161 11.22788,14.67699 l 6.64177,0.77547 -5.5,0.29953 c -4.86333,0.26485 -5.03697,0.342 -1.5,0.66641 2.2,0.20179 4.675,0.66293 5.5,1.02475 1.58482,0.69506 2.70654,0.96824 4.75,1.15681 0.6875,0.0634 1.25,1.00678 1.25,2.0963 0,2.66395 -3.54426,3.44438 -11.80071,2.59849 -8.36945,-0.85748 -7.61146,0.23388 0.93161,1.34132 l 6.3691,0.82563 -5.5,0.0264 c -3.025,0.0145 -7.20224,-0.37447 -9.28277,-0.86438 z m -3.71723,-13.40837 c 0,-0.825 -0.43588,-1.5 -0.96862,-1.5 -0.53273,0 -0.70959,0.675 -0.39301,1.5 0.31659,0.825 0.75246,1.5 0.96862,1.5 0.21615,0 0.39301,-0.675 0.39301,-1.5 z m 36.12188,13.59649 c -0.75796,-0.48009 -1.09415,-1.33234 -0.74708,-1.8939 0.34706,-0.56157 0.85574,-6.79938 1.1304,-13.86181 0.27466,-7.06243 0.77445,-14.75328 1.11063,-17.09078 0.37653,-2.61797 0.22019,-4.25 -0.40713,-4.25 -1.11734,0 -0.71446,-5.58547 0.95571,-13.25 0.98211,-4.50697 3.11732,-6.32697 4.10616,-3.5 0.3157,0.90254 1.02342,0.72985 2.54609,-0.62128 1.19793,-1.06298 2.8075,-1.60319 3.72628,-1.25061 1.40708,0.53994 1.52981,1.95382 0.94367,10.87128 -0.37057,5.63783 -1.75665,15.59688 -3.08019,22.13121 -1.32353,6.53433 -2.45128,13.95933 -2.5061,16.5 -0.0821,3.8035 -0.24109,4.17784 -0.90032,2.1194 -0.52707,-1.64576 -0.8347,-1.90594 -0.90032,-0.76143 -0.0964,1.68177 -2.99865,5.77726 -4.07192,5.74612 -0.29027,-0.008 -1.14791,-0.40811 -1.90588,-0.8882 z m 118.878121,-0.27144 c -4.1294,-1.17341 -9.5175,-5.05488 -11.0863,-7.98637 -0.799,-1.49281 -0.8028,-1.88814 -0.013,-1.40034 0.6049,0.37383 1.0998,0.25128 1.0998,-0.27233 0,-0.52362 -0.675,-1.21105 -1.5,-1.52764 -0.825,-0.31658 -1.5,-1.51628 -1.5,-2.666 0,-1.14972 0.4374,-1.8201 0.9719,-1.48973 0.9551,0.59029 0.5679,-9.29735 -0.8395,-21.43805 -0.6265,-5.40468 -0.6694,-5.46311 -4.6151,-6.28273 -5.1048,-1.06039 -6.5784,-2.48187 -4.3103,-4.15794 1.5618,-1.15425 1.5715,-1.39688 0.1132,-2.85514 -2.7084,-2.70793 -0.9338,-4.74878 4.1289,-4.74878 3.8612,0 4.5861,-0.32465 5.0237,-2.25 2.1378,-9.40488 2.7201,-11.8275 3.8937,-16.19926 1.364,-5.08118 3.633,-7.35086 3.633,-3.63407 0,3.00612 1.702,2.56037 3.5,-0.91667 1.7259,-3.33761 2.981,-3.79483 3.89302,-1.41821 0.9785,2.54983 0.7156,6.37907 -1.04792,15.26298 -1.4161,7.13392 -1.4525,8.48119 -0.2508,9.28488 1.34852,0.90189 5.59892,0.59915 10.90572,-0.77677 1.375,-0.3565 2.1839,-0.30317 1.7976,0.11852 -0.8097,0.88388 1.537,3.5286 3.131,3.5286 0.5893,0 1.0714,0.89143 1.0714,1.98095 0,1.34733 -0.8796,2.17495 -2.75,2.58747 -1.5125,0.33359 -3.875,1.01152 -5.25,1.50651 -1.8717,0.67382 -1.3691,0.76265 2,0.35349 3.2939,-0.40003 4.098,-0.26676 3,0.49722 -0.825,0.57405 -4.935,1.05062 -9.1334,1.05905 -7.06452,0.0142 -7.67832,0.18297 -8.23632,2.26531 -1.0041,3.74659 -0.7018,25.74779 0.3815,27.77199 1.1344,2.11966 6.47262,3.88488 12.48822,4.12954 3.9474,0.16054 3.9342,0.1717 -1,0.84847 l -5,0.68579 4.75,0.15711 c 2.6125,0.0864 4.75,0.63539 4.75,1.21996 0,0.58457 0.7875,0.98275 1.75,0.88484 3.2175,-0.32728 4.25,0.0413 4.25,1.51712 0,2.74091 -3.9703,3.80855 -11.9142,3.20378 -8.79622,-0.66965 -8.18202,0.0552 1.0627,1.25408 l 6.3515,0.82371 -6,0.0366 c -3.3,0.0201 -7.57502,-0.41094 -9.50002,-0.95796 z m -3.9904,-16.32505 -0.7796,-4 -0.115,3.58333 c -0.063,1.97084 0.185,3.88334 0.5517,4.25 1.0967,1.09678 1.1618,0.36895 0.3429,-3.83333 z m -118.009601,10.22568 c 0,-2.5342 0.48478,-4.90726 1.07729,-5.27344 0.74829,-0.46248 0.86186,0.8174 0.37186,4.19098 -0.92696,6.38213 -1.44915,6.77219 -1.44915,1.08246 z m -617.38998,0.32333 c 0.61051,-0.85196 1.60932,-2.44901 2.21959,-3.54901 0.61026,-1.1 1.12326,-1.46259 1.13998,-0.80576 0.0167,0.65683 -0.98209,2.25388 -2.21959,3.54901 -1.2375,1.29512 -1.75049,1.65771 -1.13998,0.80576 z m 227.62198,-14.04901 c 0,-1.925 0.2058,-2.7125 0.45733,-1.75 0.25152,0.9625 0.25152,2.5375 0,3.5 -0.25153,0.9625 -0.45733,0.175 -0.45733,-1.75 z m 149.50356,-0.25632 -1.76444,-3.24368 2.01444,2.36078 c 1.71413,2.00885 2.63029,4.1548 1.76444,4.1329 -0.1375,-0.004 -1.044,-1.46598 -2.01444,-3.25 z m 242.45939,0.75632 c -0.0204,-1.65 0.18706,-2.44606 0.46099,-1.76903 0.27392,0.67703 0.29059,2.02703 0.0371,3 -0.25359,0.97297 -0.47771,0.41903 -0.49809,-1.23097 z m 74.90544,-2.79548 c -1.26492,-2.10631 -1.24361,-2.12762 0.47833,-0.47833 0.99123,0.94941 1.58698,1.94144 1.3239,2.20452 -0.26308,0.26308 -1.07408,-0.5137 -1.80223,-1.72619 z m -597.10039,-3.20452 c 0.68469,-0.825 1.46989,-1.5 1.74489,-1.5 0.275,0 -0.0602,0.675 -0.74489,1.5 -0.68469,0.825 -1.46989,1.5 -1.74489,1.5 -0.275,0 0.0602,-0.675 0.74489,-1.5 z m 362,0 c 0.68469,-0.825 1.46989,-1.5 1.74489,-1.5 0.275,0 -0.0602,0.675 -0.74489,1.5 -0.68469,0.825 -1.46989,1.5 -1.74489,1.5 -0.275,0 0.0602,-0.675 0.74489,-1.5 z m -100.72917,-2.10417 c 0.33229,-0.33229 1.1948,-0.36782 1.91667,-0.079 0.79773,0.31923 0.56078,0.55619 -0.60417,0.60417 -1.05416,0.0434 -1.64479,-0.19293 -1.3125,-0.52522 z m -426.77083,-1.39583 c -0.74125,-1.19936 2.20893,-1.19936 5,0 1.68588,0.72445 1.49883,0.87047 -1.19098,0.92972 -1.75504,0.0387 -3.4691,-0.37972 -3.80902,-0.92972 z m 419.77083,-0.60417 c 0.33229,-0.33229 1.1948,-0.36782 1.91667,-0.079 0.79773,0.31923 0.56078,0.55619 -0.60417,0.60417 -1.05416,0.0434 -1.64479,-0.19293 -1.3125,-0.52522 z m 274.40992,-41.64583 c -0.29593,-1.7875 -0.84084,-4.45204 -1.21092,-5.92119 -0.58514,-2.32297 -0.17076,-2.99123 3.17866,-5.12612 2.11833,-1.35021 3.98559,-2.10844 4.14946,-1.68496 0.16387,0.42347 1.13036,0.55227 2.14776,0.28621 1.01741,-0.26605 2.84146,0.047 4.05345,0.69561 l 2.20363,1.17935 -2.78849,2.91055 c -1.53366,1.6008 -2.44148,2.91055 -2.01736,2.91055 0.42411,0 -0.65451,1.8 -2.39694,4 -3.93942,4.97392 -6.57523,5.24402 -7.31925,0.75 z m 10.81593,-5.74462 c 1.01958,-1.64972 4.50332,-3.22829 4.50332,-2.04056 0,0.56935 -0.675,1.03518 -1.5,1.03518 -0.825,0 -1.5,0.45 -1.5,1 0,0.55 -0.47656,1 -1.05902,1 -0.58246,0 -0.78239,-0.44758 -0.4443,-0.99462 z"
       id="path2996"
       inkscape:connector-curvature="0" />
    <g
       id="layer1-9"
       inkscape:label="Layer 1"
       transform="translate(-1321.4487,-18.001265)"
       style="fill:#ffffff;fill-opacity:1;stroke:#ffffff;stroke-opacity:1">
      <path
         transform="matrix(0.94866069,0,0,0.92968747,16.058592,29.6749)"
         d="m 333.87562,411.28656 c 0,5.94054 -4.71945,10.7563 -10.54118,10.7563 -5.82173,0 -10.54117,-4.81576 -10.54117,-10.7563 0,-5.94054 4.71944,-10.7563 10.54117,-10.7563 5.82173,0 10.54118,4.81576 10.54118,10.7563 z"
         sodipodi:ry="10.756303"
         sodipodi:rx="10.541177"
         sodipodi:cy="411.28656"
         sodipodi:cx="323.33444"
         id="path2987"
         style="fill:#ffffff;fill-opacity:1;fill-rule:nonzero;stroke:#ffffff;stroke-opacity:1"
         sodipodi:type="arc" />
      <path
         sodipodi:nodetypes="ccccccccccccccccccccccccc"
         inkscape:connector-curvature="0"
         id="path3765"
         d="m 319.67731,458.18403 6.9916,-19.68403 8.06722,14.52101 24.95463,-13.33782 -4.73278,-9.8958 -17.21008,12.47731 -7.31429,-14.19831 m 0,-1e-5 -19.36134,-5.59328 -20.6521,7.31429 -6.45378,15.05883 8.60504,1.721 6.45378,-13.76806 9.35798,-2.58152 -5.91596,22.05042 -14.62857,14.52102 -20.6521,-9.46555 -7.74454,9.46555 28.82689,10.32604 19.36134,-11.61681 24.52437,5.59329 9.46555,19.36134 10.32605,-5.59328 -11.18656,-21.94285 -21.08235,-4.73277"
         style="fill:#ffffff;fill-opacity:1;stroke:#ffffff;stroke-width:1px;stroke-linecap:butt;stroke-linejoin:miter;stroke-opacity:1" />
    </g>
  </g>
</svg>
